<svg width="101" height="30" viewBox="0 0 101 30" fill="none" xmlns="http://www.w3.org/2000/svg">
<path d="M18.7862 4.10103L20.8201 4.18856C21.4994 4.2469 21.9995 4.33443 22.3205 4.44695C22.6414 4.56365 22.8039 4.83872 22.8039 5.27216C22.8039 5.53056 21.3994 6.92258 21.3994 6.92258L11.7303 16.0791V5.07628L11.8136 3.25082C11.8928 2.32975 12.0762 1.71293 12.3638 1.40452C12.6472 1.09194 13.2098 0.896059 14.0475 0.816873L15.6313 0.696009V0H0.0273438V0.691841L2.14038 0.854382C2.97809 0.962743 3.54073 1.1878 3.82413 1.52538C4.10754 1.86297 4.29092 2.46729 4.37427 3.33417L4.45346 5.15963V24.452L4.37427 26.3191C4.29092 27.161 4.09504 27.7528 3.78663 28.1071C3.47405 28.4613 2.92808 28.6906 2.14038 28.7989C1.64025 28.8864 0.9109 28.9323 0.110698 28.9615V29.6116H15.5062V28.9615C14.9894 28.9365 14.4977 28.8948 14.0434 28.8406C13.2057 28.7322 12.643 28.5239 12.3596 28.2113C12.0762 27.8987 11.8928 27.2985 11.8095 26.4025L11.7261 24.5354V18.663C13.8558 20.1426 22.9415 26.4442 23.6125 26.9526C24.1209 27.3402 24.3793 27.5611 24.3793 27.8404C24.3793 28.1196 24.1626 28.2863 23.825 28.4613C23.4874 28.6364 23.0248 28.7489 22.4455 28.8073C21.7161 28.8948 20.9535 28.9365 20.1699 28.9573V29.6325H32.5105V28.9573C32.0896 28.9281 31.677 28.9198 31.1977 28.8739C30.7476 28.8281 30.1933 28.7364 29.5473 28.6239C28.9013 28.5072 28.0928 28.2655 27.3926 27.9154C26.6966 27.5695 26.0881 27.2985 24.6044 26.2525L13.9975 18.8381C13.9975 18.8381 27.2717 5.87648 28.1094 5.20965C28.6387 4.78454 29.5056 4.44279 30.1516 4.33859C30.7976 4.23857 31.2894 4.18022 31.627 4.16355C31.9646 4.14688 32.2646 4.12604 32.523 4.09687V3.40503H18.7862V4.09687V4.10103Z" fill="white"/>
<path d="M40.2654 28.5024C40.1529 28.2774 40.157 28.0523 40.157 27.3438L40.1279 25.956V15.6992H33.918V16.3911L34.6807 16.4494C35.2808 16.5078 35.6226 16.6536 35.6976 16.8912C35.7726 17.1246 35.831 17.4788 35.8685 17.9498L35.8976 19.1543V25.956L35.8685 27.3438C35.8685 28.069 35.7518 28.3024 35.6392 28.5149C35.5267 28.7317 35.1975 28.8692 34.6515 28.9276L33.9721 28.9567V29.6486H41.9367V28.9567L41.2573 28.9276C40.7113 28.8692 40.3821 28.7275 40.2696 28.5024H40.2654Z" fill="white"/>
<path d="M37.8063 13.7879C38.4648 13.7879 39.0191 13.5587 39.4776 13.1044C39.936 12.646 40.1611 12.0875 40.1611 11.4206C40.1611 10.7538 39.9319 10.1787 39.4776 9.73689C39.0191 9.29511 38.4648 9.07422 37.8063 9.07422C37.1478 9.07422 36.6143 9.30344 36.1601 9.75772C35.7016 10.2162 35.4766 10.7663 35.4766 11.4165C35.4766 12.0666 35.7058 12.6418 36.1601 13.1002C36.6185 13.5587 37.1645 13.7837 37.8063 13.7837V13.7879Z" fill="white"/>
<path d="M100.017 4.00567C100.038 2.2719 99.0046 0.292235 95.9914 0.121358C92.3738 -0.0828598 86.9724 3.54722 83.7466 15.371C83.7341 15.4085 83.6549 15.6586 83.6258 15.7503C82.8714 18.1467 81.6086 23.0396 79.5164 26.4822C79.4122 26.6572 79.208 27.0198 79.2038 27.0156C79.0204 27.3824 78.5995 27.895 78.3494 28.1368C78.2911 28.1951 78.2202 28.2451 78.1452 28.291C78.1327 28.2993 78.1202 28.3035 78.1035 28.3118C78.0452 28.3451 77.9827 28.3785 77.9202 28.4035C77.8743 28.4243 77.8285 28.4368 77.7785 28.4535C77.6451 28.4952 77.5117 28.5285 77.3867 28.5285C77.0741 28.5327 76.724 28.3743 76.5198 28.1368C76.2239 27.7867 76.0989 27.0823 76.0989 26.2946L76.0739 25.1152V15.7003H69.4805V16.3921L70.1724 16.4505C70.635 16.5088 70.9351 16.638 71.0726 16.8381C71.2101 17.0381 71.281 17.4007 71.281 17.9175L71.306 19.097V25.2569C71.306 26.6197 71.7519 27.6866 72.6397 28.4535C72.6938 28.4993 72.748 28.541 72.798 28.5869C72.4021 28.466 72.0103 28.3243 71.6186 28.1409C69.2555 27.0406 67.2008 25.2319 66.2839 24.4233C64.4584 22.8104 62.0037 19.6513 59.6656 16.5047C60.8742 16.3796 62.533 16.1379 63.4749 15.8045C64.4126 15.4752 65.2003 15.0168 65.8379 14.425C66.4714 13.8373 66.9424 13.1288 67.2466 12.3036C67.5509 11.4784 67.7051 10.6532 67.7051 9.82797C67.7051 8.71936 67.4425 7.74828 66.9174 6.91057C66.3923 6.07286 65.6837 5.37268 64.7918 4.80587C63.9 4.23906 62.9706 3.83896 61.5577 3.63058C60.9576 3.54305 60.1949 3.38885 57.9235 3.38885L43.4615 3.40135V4.08486C43.8032 4.10986 44.17 4.12653 44.5618 4.13904C44.9535 4.15154 45.4161 4.19322 45.9538 4.26407C46.4914 4.33492 46.904 4.52247 47.1999 4.83088C47.4917 5.13929 47.675 5.66859 47.7501 6.42295L47.8251 8.04836V25.011L47.7459 26.6364C47.6709 27.3907 47.4958 27.9159 47.2166 28.2118C46.9374 28.5077 46.5623 28.6744 46.0621 28.7661C45.562 28.8578 45.1036 28.937 44.5242 28.9578H43.3906V29.6496H59.0612V28.9578C58.4236 28.9203 57.7692 28.9161 57.2149 28.8453C56.4564 28.7536 55.8979 28.5118 55.5812 28.1826C55.2645 27.8533 55.0686 27.3115 54.9935 26.5572L54.9185 24.9318V16.3421C55.4353 16.3421 55.9521 16.3546 56.4648 16.3796C56.8315 16.3963 57.4025 16.4755 57.8026 16.638C58.2027 16.8006 58.4194 16.8756 59.278 17.5257C59.4905 17.6883 60.4199 19.047 61.0617 20.0514C62.1829 21.8018 62.9247 25.3194 66.2964 27.9825C68.5428 29.7622 71.8686 29.6413 75.6571 29.6413C76.6282 29.6413 77.3909 29.4579 77.941 29.0953C78.4911 28.7327 78.9579 28.316 79.3372 27.6241V29.658H85.8305V28.9661L85.1386 28.9078C84.676 28.8494 84.376 28.6869 84.2384 28.4868C84.0967 28.2868 84.03 27.9242 84.03 27.4074L84.005 26.1863V21.4601C84.9011 11.0449 89.7231 5.05594 91.4819 3.48887C92.1821 2.86372 93.9075 1.75927 95.0328 1.80512C94.987 1.84679 94.9411 1.8843 94.8994 1.92598C94.3535 2.47195 94.0159 3.22214 94.0159 4.05568C94.0159 5.71443 95.3621 7.06477 97.025 7.06477C98.5545 7.06477 99.8173 5.92282 100.005 4.44328C100.013 4.35159 100.022 4.25573 100.026 4.16404C100.026 4.14737 100.026 4.1307 100.026 4.11403C100.026 4.09736 100.026 4.07652 100.026 4.05985C100.026 4.04735 100.026 4.03484 100.026 4.02234L100.017 4.00567ZM57.8568 15.2627C57.4192 15.3335 56.8565 15.3669 56.173 15.3669H54.9269V4.5308C54.9269 4.5308 56.0313 4.5058 56.5689 4.5308C57.1066 4.55581 57.6859 4.60999 58.161 4.78087C58.8279 5.02259 59.453 5.26432 59.9448 6.38544C60.4324 7.50655 60.6783 8.64434 60.6783 9.7988C60.6783 11.2117 60.4408 12.4995 59.9656 13.6539C59.4905 14.8084 58.7862 15.1251 57.8609 15.2668L57.8568 15.2627Z" fill="white"/>
</svg>
