<svg width="100" height="30" viewBox="0 0 25 24" fill="none" xmlns="http://www.w3.org/2000/svg">
<path d="M20.9642 9.35914L15.309 8.87154L13.1006 3.70528C12.7033 2.76491 11.3479 2.76491 10.9507 3.70528L8.74232 8.88315L3.09875 9.35914C2.07053 9.44041 1.64989 10.7175 2.43274 11.3908L6.72092 15.0827L5.43563 20.5624C5.20195 21.5608 6.28859 22.3502 7.17661 21.8162L12.0256 18.9138L16.8747 21.8278C17.7627 22.3619 18.8493 21.5724 18.6156 20.574L17.3304 15.0827L21.6185 11.3908C22.4014 10.7175 21.9924 9.44041 20.9642 9.35914ZM12.0256 16.7428L7.6323 19.3782L8.80074 14.4093L4.92152 11.0657L10.0393 10.6246L12.0256 5.94593L14.0237 10.6362L19.1414 11.0774L15.2622 14.4209L16.4307 19.3898L12.0256 16.7428Z" fill="white"/>
</svg>
