
<svg width="225" height="36" viewBox="0 0 225 36" fill="none" xmlns="http://www.w3.org/2000/svg">
<rect width="225" height="36" rx="8" fill="#EEEEEE"/>
<path d="M27.9 26.3L22.3 20.7C21.8 21.1 21.225 21.4167 20.575 21.65C19.925 21.8833 19.2333 22 18.5 22C16.6833 22 15.146 21.371 13.888 20.113C12.6293 18.8543 12 17.3167 12 15.5C12 13.6833 12.6293 12.1457 13.888 10.887C15.146 9.629 16.6833 9 18.5 9C20.3167 9 21.8543 9.629 23.113 10.887C24.371 12.1457 25 13.6833 25 15.5C25 16.2333 24.8833 16.925 24.65 17.575C24.4167 18.225 24.1 18.8 23.7 19.3L29.325 24.925C29.5083 25.1083 29.6 25.3333 29.6 25.6C29.6 25.8667 29.5 26.1 29.3 26.3C29.1167 26.4833 28.8833 26.575 28.6 26.575C28.3167 26.575 28.0833 26.4833 27.9 26.3ZM18.5 20C19.75 20 20.8127 19.5627 21.688 18.688C22.5627 17.8127 23 16.75 23 15.5C23 14.25 22.5627 13.1873 21.688 12.312C20.8127 11.4373 19.75 11 18.5 11C17.25 11 16.1873 11.4373 15.312 12.312C14.4373 13.1873 14 14.25 14 15.5C14 16.75 14.4373 17.8127 15.312 18.688C16.1873 19.5627 17.25 20 18.5 20Z" fill="#ADADAD"/>
</svg>
