<svg width="24" height="24" viewBox="0 0 24 24" fill="none" xmlns="http://www.w3.org/2000/svg">
<path d="M20.9369 9.35914L15.2816 8.87154L13.0733 3.70528C12.676 2.76491 11.3206 2.76491 10.9233 3.70528L8.71497 8.88315L3.07141 9.35914C2.04318 9.44041 1.62254 10.7175 2.4054 11.3908L6.69357 15.0827L5.40829 20.5624C5.1746 21.5608 6.26125 22.3502 7.14926 21.8162L11.9983 18.9138L16.8473 21.8278C17.7353 22.3619 18.822 21.5724 18.5883 20.574L17.303 15.0827L21.5912 11.3908C22.374 10.7175 21.9651 9.44041 20.9369 9.35914ZM11.9983 16.7428L7.60496 19.3782L8.7734 14.4093L4.89418 11.0657L10.0119 10.6246L11.9983 5.94593L13.9963 10.6362L19.1141 11.0774L15.2349 14.4209L16.4033 19.3898L11.9983 16.7428Z" fill="black"/>
</svg>
