<svg width="21" height="20" viewBox="0 0 21 20" fill="none" xmlns="http://www.w3.org/2000/svg">
<path d="M6.02734 20C5.47734 20 5.00668 19.8043 4.61534 19.413C4.22334 19.021 4.02734 18.55 4.02734 18C4.02734 17.45 4.22334 16.979 4.61534 16.587C5.00668 16.1957 5.47734 16 6.02734 16C6.57734 16 7.04801 16.1957 7.43934 16.587C7.83134 16.979 8.02734 17.45 8.02734 18C8.02734 18.55 7.83134 19.021 7.43934 19.413C7.04801 19.8043 6.57734 20 6.02734 20ZM16.0273 20C15.4773 20 15.0067 19.8043 14.6153 19.413C14.2233 19.021 14.0273 18.55 14.0273 18C14.0273 17.45 14.2233 16.979 14.6153 16.587C15.0067 16.1957 15.4773 16 16.0273 16C16.5773 16 17.0483 16.1957 17.4403 16.587C17.8317 16.979 18.0273 17.45 18.0273 18C18.0273 18.55 17.8317 19.021 17.4403 19.413C17.0483 19.8043 16.5773 20 16.0273 20ZM5.17734 4L7.57734 9H14.5773L17.3273 4H5.17734ZM6.02734 15C5.27734 15 4.71068 14.6707 4.32734 14.012C3.94401 13.354 3.92734 12.7 4.27734 12.05L5.62734 9.6L2.02734 2H1.00234C0.71901 2 0.485677 1.904 0.302344 1.712C0.11901 1.52067 0.0273438 1.28333 0.0273438 1C0.0273438 0.716667 0.123344 0.479 0.315344 0.287C0.506677 0.0956666 0.74401 0 1.02734 0H2.65234C2.83568 0 3.01068 0.0500001 3.17734 0.15C3.34401 0.25 3.46901 0.391667 3.55234 0.575L4.22734 2H18.9773C19.4273 2 19.7357 2.16667 19.9023 2.5C20.069 2.83333 20.0607 3.18333 19.8773 3.55L16.3273 9.95C16.144 10.2833 15.9023 10.5417 15.6023 10.725C15.3023 10.9083 14.9607 11 14.5773 11H7.12734L6.02734 13H17.0523C17.3357 13 17.569 13.0957 17.7523 13.287C17.9357 13.479 18.0273 13.7167 18.0273 14C18.0273 14.2833 17.9313 14.5207 17.7393 14.712C17.548 14.904 17.3107 15 17.0273 15H6.02734Z" fill="white"/>
</svg>
