<svg width="93" height="93" viewBox="0 0 93 93" fill="none" xmlns="http://www.w3.org/2000/svg">
<path d="M50.8594 59.5782C50.8594 60.7343 50.4001 61.8431 49.5825 62.6607C48.765 63.4782 47.6562 63.9375 46.5 63.9375C45.3438 63.9375 44.235 63.4782 43.4174 62.6607C42.5999 61.8431 42.1406 60.7343 42.1406 59.5782C42.1406 58.422 42.5999 57.3131 43.4174 56.4956C44.235 55.6781 45.3438 55.2188 46.5 55.2188C47.6562 55.2188 48.765 55.6781 49.5825 56.4956C50.4001 57.3131 50.8594 58.422 50.8594 59.5782ZM43.5937 46.5C43.5937 47.2708 43.8999 48.01 44.445 48.5551C44.99 49.1001 45.7292 49.4063 46.5 49.4063C47.2708 49.4063 48.01 49.1001 48.555 48.5551C49.1 48.01 49.4062 47.2708 49.4062 46.5V31.9688C49.4062 31.198 49.1 30.4588 48.555 29.9137C48.01 29.3687 47.2708 29.0625 46.5 29.0625C45.7292 29.0625 44.99 29.3687 44.445 29.9137C43.8999 30.4588 43.5937 31.198 43.5937 31.9688V46.5ZM40.1585 15.3276C40.7893 14.1997 41.7094 13.2604 42.8241 12.6066C43.9388 11.9528 45.2077 11.6082 46.5 11.6082C47.7923 11.6082 49.0612 11.9528 50.1758 12.6066C51.2905 13.2604 52.2107 14.1997 52.8414 15.3276L80.4508 64.7455C81.0688 65.8508 81.3871 67.0985 81.3743 68.3648C81.3615 69.6311 81.0179 70.872 80.3776 71.9646C79.7373 73.0572 78.8226 73.9634 77.7241 74.5935C76.6256 75.2236 75.3815 75.5556 74.1152 75.5567H18.8674C17.6005 75.5567 16.3557 75.2254 15.2564 74.5957C14.1571 73.966 13.2416 73.0598 12.6006 71.9671C11.9596 70.8744 11.6155 69.633 11.6024 68.3662C11.5893 67.0994 11.9077 65.8512 12.5259 64.7455L40.1585 15.3276ZM47.7671 18.1641C47.6412 17.9377 47.4571 17.749 47.2338 17.6177C47.0105 17.4863 46.7561 17.4171 46.4971 17.4171C46.238 17.4171 45.9837 17.4863 45.7604 17.6177C45.5371 17.749 45.3529 17.9377 45.227 18.1641L17.6119 67.582C17.4883 67.803 17.4246 68.0526 17.4272 68.3058C17.4297 68.5591 17.4984 68.8073 17.6265 69.0258C17.7546 69.2443 17.9375 69.4256 18.1572 69.5516C18.3769 69.6776 18.6257 69.744 18.879 69.7442H74.1152C74.3684 69.744 74.6173 69.6776 74.837 69.5516C75.0567 69.4256 75.2396 69.2443 75.3677 69.0258C75.4957 68.8073 75.5644 68.5591 75.567 68.3058C75.5696 68.0526 75.5059 67.803 75.3823 67.582L47.7671 18.1641Z" fill="#727272"/>
</svg>
