<svg width="17" height="16" viewBox="0 0 17 16" fill="none" xmlns="http://www.w3.org/2000/svg">
<path d="M8.02734 8C6.92734 8 5.98568 7.60833 5.20234 6.825C4.41901 6.04167 4.02734 5.1 4.02734 4C4.02734 2.9 4.41901 1.95833 5.20234 1.175C5.98568 0.391667 6.92734 0 8.02734 0C9.12734 0 10.069 0.391667 10.8523 1.175C11.6357 1.95833 12.0273 2.9 12.0273 4C12.0273 5.1 11.6357 6.04167 10.8523 6.825C10.069 7.60833 9.12734 8 8.02734 8ZM14.0273 16H2.02734C1.47734 16 1.00668 15.8043 0.615344 15.413C0.223344 15.021 0.0273438 14.55 0.0273438 14V13.2C0.0273438 12.6333 0.173344 12.1123 0.465344 11.637C0.756677 11.1623 1.14401 10.8 1.62734 10.55C2.66068 10.0333 3.71068 9.64567 4.77734 9.387C5.84401 9.129 6.92734 9 8.02734 9C9.12734 9 10.2107 9.129 11.2773 9.387C12.344 9.64567 13.394 10.0333 14.4273 10.55C14.9107 10.8 15.298 11.1623 15.5893 11.637C15.8813 12.1123 16.0273 12.6333 16.0273 13.2V14C16.0273 14.55 15.8317 15.021 15.4403 15.413C15.0483 15.8043 14.5773 16 14.0273 16ZM2.02734 14H14.0273V13.2C14.0273 13.0167 13.9817 12.85 13.8903 12.7C13.7983 12.55 13.6773 12.4333 13.5273 12.35C12.6273 11.9 11.719 11.5623 10.8023 11.337C9.88568 11.1123 8.96068 11 8.02734 11C7.09401 11 6.16901 11.1123 5.25234 11.337C4.33568 11.5623 3.42734 11.9 2.52734 12.35C2.37734 12.4333 2.25668 12.55 2.16534 12.7C2.07334 12.85 2.02734 13.0167 2.02734 13.2V14ZM8.02734 6C8.57734 6 9.04834 5.804 9.44034 5.412C9.83168 5.02067 10.0273 4.55 10.0273 4C10.0273 3.45 9.83168 2.97933 9.44034 2.588C9.04834 2.196 8.57734 2 8.02734 2C7.47734 2 7.00668 2.196 6.61534 2.588C6.22334 2.97933 6.02734 3.45 6.02734 4C6.02734 4.55 6.22334 5.02067 6.61534 5.412C7.00668 5.804 7.47734 6 8.02734 6Z" fill="white"/>
</svg>
