<svg width="79" height="76" viewBox="0 0 79 76" fill="none" xmlns="http://www.w3.org/2000/svg">
<path d="M35.6958 3.7082C36.8932 0.0229588 42.1068 0.0229616 43.3042 3.7082L49.7154 23.4397C50.2509 25.0878 51.7867 26.2037 53.5196 26.2037H74.2666C78.1415 26.2037 79.7526 31.1621 76.6177 33.4397L59.8331 45.6345C58.4311 46.6531 57.8445 48.4585 58.38 50.1066L64.7911 69.8381C65.9885 73.5234 61.7706 76.5879 58.6358 74.3103L41.8511 62.1155C40.4492 61.0969 38.5508 61.0969 37.1489 62.1155L20.3642 74.3103C17.2294 76.5879 13.0114 73.5234 14.2089 69.8381L20.62 50.1066C21.1555 48.4585 20.5689 46.6531 19.1669 45.6345L2.38229 33.4397C-0.752563 31.1621 0.858542 26.2037 4.73344 26.2037H25.4804C27.2133 26.2037 28.7491 25.0878 29.2846 23.4397L35.6958 3.7082Z" fill="#6D16DC"/>
</svg>
