<svg width="28" height="28" viewBox="0 0 28 28" fill="none" xmlns="http://www.w3.org/2000/svg">
<rect width="28" height="28" rx="4" fill="#EEEEEE"/>
<path d="M20.9 22.3L15.3 16.7C14.8 17.1 14.225 17.4167 13.575 17.65C12.925 17.8833 12.2333 18 11.5 18C9.68333 18 8.146 17.371 6.888 16.113C5.62933 14.8543 5 13.3167 5 11.5C5 9.68333 5.62933 8.14567 6.888 6.887C8.146 5.629 9.68333 5 11.5 5C13.3167 5 14.8543 5.629 16.113 6.887C17.371 8.14567 18 9.68333 18 11.5C18 12.2333 17.8833 12.925 17.65 13.575C17.4167 14.225 17.1 14.8 16.7 15.3L22.325 20.925C22.5083 21.1083 22.6 21.3333 22.6 21.6C22.6 21.8667 22.5 22.1 22.3 22.3C22.1167 22.4833 21.8833 22.575 21.6 22.575C21.3167 22.575 21.0833 22.4833 20.9 22.3ZM11.5 16C12.75 16 13.8127 15.5627 14.688 14.688C15.5627 13.8127 16 12.75 16 11.5C16 10.25 15.5627 9.18733 14.688 8.312C13.8127 7.43733 12.75 7 11.5 7C10.25 7 9.18733 7.43733 8.312 8.312C7.43733 9.18733 7 10.25 7 11.5C7 12.75 7.43733 13.8127 8.312 14.688C9.18733 15.5627 10.25 16 11.5 16Z" fill="#ADADAD"/>
</svg>