<svg width="18" height="18" viewBox="0 0 18 18" fill="none" xmlns="http://www.w3.org/2000/svg">
<path d="M15.9273 17.3L10.3273 11.7C9.82734 12.1 9.25234 12.4167 8.60234 12.65C7.95234 12.8833 7.26068 13 6.52734 13C4.71068 13 3.17334 12.371 1.91534 11.113C0.656677 9.85433 0.0273438 8.31667 0.0273438 6.5C0.0273438 4.68333 0.656677 3.14567 1.91534 1.887C3.17334 0.629 4.71068 0 6.52734 0C8.34401 0 9.88168 0.629 11.1403 1.887C12.3983 3.14567 13.0273 4.68333 13.0273 6.5C13.0273 7.23333 12.9107 7.925 12.6773 8.575C12.444 9.225 12.1273 9.8 11.7273 10.3L17.3523 15.925C17.5357 16.1083 17.6273 16.3333 17.6273 16.6C17.6273 16.8667 17.5273 17.1 17.3273 17.3C17.144 17.4833 16.9107 17.575 16.6273 17.575C16.344 17.575 16.1107 17.4833 15.9273 17.3ZM6.52734 11C7.77734 11 8.84001 10.5627 9.71534 9.688C10.59 8.81267 11.0273 7.75 11.0273 6.5C11.0273 5.25 10.59 4.18733 9.71534 3.312C8.84001 2.43733 7.77734 2 6.52734 2C5.27734 2 4.21468 2.43733 3.33934 3.312C2.46468 4.18733 2.02734 5.25 2.02734 6.5C2.02734 7.75 2.46468 8.81267 3.33934 9.688C4.21468 10.5627 5.27734 11 6.52734 11Z" fill="white"/>
</svg>
